<?xml version="1.0" encoding="UTF-8"?>
<svg id="katman_1" data-name="katman 1" xmlns="http://www.w3.org/2000/svg" viewBox="0 0 2400 653.27">
  <defs>
    <style>
      .cls-1 {
        fill: #fff;
      }

      .cls-2 {
        fill: #ff3646;
      }
    </style>
  </defs>
  <path class="cls-1" d="M1035.68,498.3h-19v75.88h17.88c12.38,0,22.09-3.61,29.13-10.82,7.04-7.21,10.56-16.61,10.56-28.18s-3.28-21.18-9.84-27.46c-6.56-6.28-16.14-9.42-28.73-9.42ZM1059.76,560.66c-6.03,5.84-14.67,8.76-25.93,8.76h-11.91v-66.3h12.97c22.61,0,33.92,10.76,33.92,32.28,0,11-3.02,19.43-9.05,25.26Z"/>
  <rect class="cls-1" x="1111.38" y="498.3" width="5.24" height="75.88"/>
  <path class="cls-1" d="M1189.51,541.22h17.88v25.03c-5.15,2.96-11.15,4.44-17.99,4.44-9.24,0-16.59-3.02-22.04-9.07-5.45-6.05-8.17-14.4-8.17-25.05s2.9-18.45,8.7-24.97c5.8-6.53,13.48-9.79,23.04-9.79,6.56,0,13.28,1.66,20.16,4.97v-5.72c-6.28-2.68-12.75-4.02-19.42-4.02-11.5,0-20.69,3.85-27.57,11.53-6.88,7.69-10.32,17.29-10.32,28.78s3.19,20.6,9.58,27.62c6.39,7.02,14.75,10.53,25.08,10.53,8.29,0,16.35-2.2,24.18-6.61v-32.44h-23.12v4.76Z"/>
  <rect class="cls-1" x="1251.82" y="498.3" width="5.24" height="75.88"/>
  <polygon class="cls-1" points="1291.69 503.12 1313.6 503.12 1313.6 574.18 1318.79 574.18 1318.79 503.12 1340.69 503.12 1340.69 498.3 1291.69 498.3 1291.69 503.12"/>
  <path class="cls-1" d="M1384.96,498.3l-28.63,75.88h5.77l8.68-23.6h32.91l8.68,23.6h5.87l-28.31-75.88h-4.97ZM1372.63,545.77l12.75-35.19c.57-1.45,1.15-3.33,1.75-5.66h.21c.28.88.55,1.76.79,2.64.25,1.02.57,2.06.95,3.12l12.8,35.08h-29.26Z"/>
  <polygon class="cls-1" points="1458.01 498.3 1452.77 498.3 1452.77 574.18 1488.43 574.18 1488.43 569.42 1458.01 569.42 1458.01 498.3"/>
  <path class="cls-1" d="M1597.44,498.3l-28.63,75.88h5.77l8.68-23.6h32.91l8.68,23.6h5.87l-28.31-75.88h-4.97ZM1585.11,545.77l12.75-35.19c.57-1.45,1.15-3.33,1.75-5.66h.21c.28.88.55,1.76.79,2.64.25,1.02.57,2.06.95,3.12l12.8,35.08h-29.26Z"/>
  <path class="cls-1" d="M1694.83,541.22h17.88v25.03c-5.15,2.96-11.15,4.44-17.99,4.44-9.24,0-16.59-3.02-22.04-9.07-5.45-6.05-8.18-14.4-8.18-25.05s2.9-18.45,8.7-24.97c5.8-6.53,13.48-9.79,23.04-9.79,6.56,0,13.28,1.66,20.16,4.97v-5.72c-6.28-2.68-12.75-4.02-19.42-4.02-11.5,0-20.69,3.85-27.57,11.53-6.88,7.69-10.32,17.29-10.32,28.78s3.19,20.6,9.58,27.62c6.38,7.02,14.74,10.53,25.08,10.53,8.29,0,16.35-2.2,24.18-6.61v-32.44h-23.12v4.76Z"/>
  <polygon class="cls-1" points="1762.38 538.3 1790.42 538.3 1790.42 533.54 1762.38 533.54 1762.38 503.12 1792.59 503.12 1792.59 498.3 1757.14 498.3 1757.14 574.18 1794.34 574.18 1794.34 569.42 1762.38 569.42 1762.38 538.3"/>
  <path class="cls-1" d="M1885.12,557.62c0,1.76.09,3.88.26,6.35h-.26c-1.16-1.9-2.24-3.53-3.23-4.87l-44.87-60.8h-4.02v75.88h5.24v-62.75c0-1.31-.04-2.42-.1-3.33h.21l.69,1.06c.7,1.23,1.52,2.47,2.43,3.7l45.19,61.32h3.7v-75.88h-5.24v59.31Z"/>
  <path class="cls-1" d="M1938.17,508.17c-7.09,7.43-10.64,17.29-10.64,29.6,0,11.22,3.27,20.31,9.82,27.28,6.54,6.97,15,10.45,25.37,10.45,6.67,0,13.07-1.27,19.21-3.81v-5.08c-5.54,2.71-11.8,4.07-18.78,4.07-8.75,0-15.97-2.99-21.67-8.97-5.7-5.98-8.55-14.14-8.55-24.47s2.98-19.32,8.94-25.77c5.96-6.46,13.71-9.68,23.23-9.68,5.89,0,11.5,1.2,16.82,3.6v-5.56c-5.33-1.87-10.9-2.8-16.72-2.8-10.94,0-19.95,3.71-27.04,11.14Z"/>
  <path class="cls-1" d="M2042.7,534.97c-1.24,2.36-2.1,4.2-2.59,5.5h-.21c-.95-2.47-1.75-4.34-2.38-5.61l-17.67-36.56h-5.87l23.23,47.14v28.73h5.18v-28.84l24.5-47.04h-5.66l-18.52,36.67Z"/>
  <path class="cls-1" d="M979.66,306.64v-54.14c0-31.66-25.68-57.36-57.36-57.36h-97.95v30.18h-30.18v196.15l30.18-.07v-196.03h97.95c1.46,0,2.96.13,4.51.37,6.14,0,11.75,2.49,15.79,6.56,4.06,4.05,6.56,9.65,6.56,15.79v.73c.21,1.18.28,2.42.28,3.65v36.71l-100.62,50.32v32.44l60.43-30.16,39.12,78.23h32.44l-45.52-91.23,44.36-22.14Z"/>
  <path class="cls-1" d="M1194.74,362.95v-170.53h-30.22l-.22,130.22-117.67-64.83c-4.03-2.21-6.53-6.46-6.53-11.03v-54.37h-30.22v50.85c0,17.27,9.36,33.19,24.48,41.57l129.87,72.06-.02,10.48c0,6.17-2.5,11.75-6.57,15.81-4.03,4.06-9.65,6.53-15.78,6.53-1.56.25-3.05.4-4.53.4h-73.05c-1.49,0-2.97-.15-4.53-.4-6.13,0-11.75-2.47-15.78-6.53-4.06-4.06-6.57-9.65-6.57-15.81l-.29-18.87-30.22-15.18v29.62c0,31.67,25.68,57.38,57.38,57.38h73.05c31.7,0,57.38-25.72,57.38-57.38Z"/>
  <path class="cls-1" d="M1413.38,389.68h-156.25v-19.78c0-4.57,2.5-8.81,6.53-11.03l110.05-60.63-.05-.4,16.53-9.17c15.13-8.38,24.48-24.3,24.48-41.57v-21.49h-30.22v25.01c0,4.57-2.5,8.81-6.53,11.03l-102.77,56.62-.05.43-23.71,13.16c-15.13,8.38-24.48,24.3-24.48,41.57v46.92h30.22v-.44h156.25v-30.22Z"/>
  <rect class="cls-1" x="1243.5" y="195.4" width="140.91" height="30.22"/>
  <polygon class="cls-1" points="1629.13 195.4 1548.89 195.4 1518.67 195.4 1438.43 195.4 1438.43 225.61 1518.67 225.61 1518.67 420.22 1548.89 420.22 1548.89 225.61 1629.13 225.61 1629.13 195.4"/>
  <polygon class="cls-1" points="2235.3 192.42 2204.48 192.42 2225.78 298.9 2113.36 298.9 2113.36 195.4 2083.15 195.4 2083.15 298.9 2083.15 329.11 2083.15 420.22 2113.36 420.22 2113.36 329.11 2231.82 329.11 2250.04 420.22 2280.73 420.22 2235.3 192.42"/>
  <path class="cls-1" d="M1706.14,389.63c-6.14,0-11.75-2.49-15.79-6.56-4.06-4.05-6.56-9.65-6.56-15.79v-.73c-.21-1.18-.28-2.42-.28-3.65v-18.38h-.04v-119.16h97.95c1.46,0,2.96.13,4.51.37,6.14,0,11.75,2.49,15.79,6.56,4.06,4.05,6.56,9.65,6.56,15.79v.73c.21,1.18.28,2.42.28,3.65v22.15l-100.62,50.32v32.44l130.83-65.29v-39.58c0-31.66-25.68-57.36-57.36-57.36h-97.95v30.18h-30.18v137.54c0,31.66,25.68,57.36,57.36,57.36h113.4v-30.22h-113.4c-1.46,0-2.96-.13-4.51-.37Z"/>
  <path class="cls-1" d="M2053.57,362.86v-13.97l-30.22-15.13v29.13c0,1.23-.07,2.47-.29,3.63v.73c0,6.17-2.5,11.75-6.57,15.81-4.03,4.06-9.65,6.57-15.78,6.57-1.56.22-3.05.36-4.53.36h-70.77c-1.45,0-2.94-.11-4.5-.36-6.13,0-11.75-2.5-15.78-6.57-4.06-4.03-6.57-9.65-6.57-15.78v-.73c-.22-1.2-.29-2.43-.29-3.66v-18.39h-.04v-119.16h97.94c1.49,0,2.97.15,4.53.36,6.13,0,11.75,2.5,15.78,6.57,4.06,4.06,6.57,9.65,6.57,15.82v.73c.22,1.16.29,2.39.29,3.63v26.48l30.22-15.13v-11.32c0-31.63-25.68-57.35-57.38-57.35h-97.94v30.18h-30.18v137.55c0,31.67,25.68,57.35,57.35,57.35h70.77c31.7,0,57.38-25.72,57.38-57.35Z"/>
  <g>
    <path class="cls-1" d="M604.96,302v232.97h-297.23c-12.01,0-20.64-5.52-26.04-10.94-5.42-5.4-10.43-14.36-10.43-25.53v-94.59l-40.29-22.07v116.93c0,42.22,34.25,76.49,76.49,76.49h297.5v-40.24h40.24v-233.02c-6.62,1.22-13.18,1.75-20.12,1.75s-13.65-.6-20.12-1.75Z"/>
    <path class="cls-1" d="M489.68,421.59c13.22-13.27,31.35-46.28,9.15-84.19l-78.49-128.95h93.75c-.91-5.75-2.2-13.99-2.2-20.13,0-7.72.73-12.87,2.2-20.13h-118.17l-38.09-62.82c-10.54-17.36-28.46-27.6-48.8-27.6h-149.45v40.32h149.45c5.9,0,11.35,3.08,14.43,8.12,0,0,138.81,228.97,140.82,232.15,9.64,15.58,2.57,29.42-1.78,34.44-5.23,6.04-19.15,14.18-35.61,5.52-1.87-1.01-258.64-142.24-258.64-142.24-5.35-2.98-8.68-8.63-8.68-14.78v-123.21h-40.31v123.21c0,23.01,9.88,38.15,30.01,49.3l258.05,142.95c34.59,20.5,69.08,1.21,82.35-11.96Z"/>
    <circle class="cls-2" cx="625.08" cy="188.32" r="71.54"/>
  </g>
</svg>