<svg width="67" height="21" viewBox="0 0 67 21" fill="none" xmlns="http://www.w3.org/2000/svg">
<path d="M29.0307 17.741C29.0307 18.5965 28.6909 19.417 28.086 20.0219C27.481 20.6268 26.6606 20.9666 25.8051 20.9666H3.22564C2.37015 20.9666 1.54969 20.6268 0.944767 20.0219C0.339843 19.417 0 18.5965 0 17.741V3.22564C0 2.37015 0.339843 1.54969 0.944767 0.944767C1.54969 0.339843 2.37015 0 3.22564 0H25.8051C26.6606 0 27.481 0.339843 28.086 0.944767C28.6909 1.54969 29.0307 2.37015 29.0307 3.22564V17.741Z" fill="#E30917"/>
<path d="M12.9022 15.3219C11.619 15.3219 10.3883 14.8122 9.48091 13.9048C8.57352 12.9974 8.06375 11.7667 8.06375 10.4835C8.06375 9.20024 8.57352 7.96956 9.48091 7.06218C10.3883 6.15479 11.619 5.64503 12.9022 5.64503C13.9586 5.64503 14.9344 5.98775 15.7303 6.56272C15.1754 5.93149 14.4922 5.42583 13.7265 5.07944C12.9607 4.73306 12.1299 4.55391 11.2894 4.55396C9.71678 4.55396 8.20858 5.17867 7.09658 6.29067C5.98458 7.40268 5.35986 8.91087 5.35986 10.4835C5.35976 11.2622 5.51305 12.0334 5.81099 12.7529C6.10893 13.4724 6.54568 14.1261 7.0963 14.6768C7.64691 15.2275 8.30062 15.6643 9.02007 15.9624C9.73953 16.2604 10.5106 16.4138 11.2894 16.4138C13.0595 16.4138 14.6441 15.634 15.7303 14.4042C14.9082 15.0012 13.9182 15.3225 12.9022 15.3219ZM16.0577 10.669L18.0253 11.1222L18.2027 13.1325L19.2414 11.402L21.209 11.8544L19.8833 10.3319L20.9211 8.60052L19.064 9.3908L17.7382 7.86749L17.9157 9.87868L16.0577 10.669Z" fill="#EEEEEE"/>
<path d="M50.6941 5.82007H46.2711V18.4834H42.7673V5.82007H38.366V2.97596H50.6941V5.82007ZM65.7906 18.4834H61.7786L59.367 14.493C59.1868 14.1902 59.0138 13.9198 58.8479 13.6819C58.6821 13.444 58.5127 13.2422 58.3397 13.0763C58.1739 12.9033 57.9972 12.7735 57.8098 12.687C57.6295 12.5933 57.4313 12.5464 57.215 12.5464H56.2742V18.4834H52.7812V2.97596H58.318C62.0814 2.97596 63.963 4.38179 63.963 7.19346C63.963 7.73417 63.8801 8.23522 63.7143 8.69662C63.5485 9.15082 63.3142 9.56175 63.0114 9.92943C62.7086 10.2971 62.3409 10.6143 61.9083 10.8811C61.483 11.1478 61.0072 11.3569 60.4809 11.5083V11.5515C60.7116 11.6236 60.9351 11.7426 61.1513 11.9084C61.3676 12.067 61.5767 12.2545 61.7786 12.4707C61.9804 12.687 62.1715 12.9213 62.3517 13.1737C62.5392 13.4188 62.7086 13.6603 62.86 13.8982L65.7906 18.4834ZM56.2742 5.59297V9.9078H57.7882C58.5379 9.9078 59.1399 9.69152 59.5941 9.25896C60.0555 8.81918 60.2862 8.27487 60.2862 7.62603C60.2862 6.27066 59.4752 5.59297 57.853 5.59297H56.2742Z" fill="white"/>
</svg>
